<svg xmlns="http://www.w3.org/2000/svg" viewBox="0 0 64 64">
    <defs>
        <linearGradient id="bg" x1="10" y1="8" x2="54" y2="58" gradientUnits="userSpaceOnUse">
            <stop stop-color="#071A3A"/>
            <stop offset="1" stop-color="#0B1020"/>
        </linearGradient>
        <linearGradient id="shell" x1="16" y1="13" x2="48" y2="51" gradientUnits="userSpaceOnUse">
            <stop stop-color="#F2FBFF"/>
            <stop offset=".52" stop-color="#90D7FF"/>
            <stop offset="1" stop-color="#1589FF"/>
        </linearGradient>
        <linearGradient id="eye" x1="20" y1="27" x2="44" y2="40" gradientUnits="userSpaceOnUse">
            <stop stop-color="#67FFF0"/>
            <stop offset="1" stop-color="#20C7FF"/>
        </linearGradient>
        <filter id="glow" x="-30%" y="-30%" width="160%" height="160%">
            <feGaussianBlur stdDeviation="1.5" result="blur"/>
            <feMerge>
                <feMergeNode in="blur"/>
                <feMergeNode in="SourceGraphic"/>
            </feMerge>
        </filter>
    </defs>
    <rect width="64" height="64" rx="16" fill="url(#bg)"/>
    <path d="M14 37c0-10.5 8.1-19 18-19s18 8.5 18 19v2.5C50 49.7 42.1 56 32 56s-18-6.3-18-16.5z" fill="url(#shell)"/>
    <path d="M18 34c0-6.1 4.6-10 10.3-10h7.4C41.4 24 46 27.9 46 34v4c0 6.1-4.6 10-10.3 10h-7.4C22.6 48 18 44.1 18 38z"
          fill="#061533"/>
    <path d="M13 35c-3.4.7-5.5 3.8-5.5 7.5S9.6 49.3 13 50zM51 35c3.4.7 5.5 3.8 5.5 7.5s-2.1 6.8-5.5 7.5z"
          fill="#55C8FF"/>
    <ellipse cx="25" cy="36" rx="4.3" ry="7" fill="url(#eye)" filter="url(#glow)"/>
    <ellipse cx="39" cy="36" rx="4.3" ry="7" fill="url(#eye)" filter="url(#glow)"/>
    <path d="M20 51c3 4.2 7.1 6 12 6s9-1.8 12-6c-3.2 1.7-7.2 2.6-12 2.6s-8.8-.9-12-2.6" fill="#35D7FF" opacity=".72"/>
    <circle cx="32" cy="13" r="2.2" fill="#69F7FF"/>
    <path d="M32 15.4v5" stroke="#69F7FF" stroke-width="2" stroke-linecap="round"/>
</svg>
